<svg width="231" height="196" viewBox="0 0 231 196" fill="none" xmlns="http://www.w3.org/2000/svg">
<path fill-rule="evenodd" clip-rule="evenodd" d="M136.344 46.6004C132.114 43.1507 127.436 40.1505 122.593 37.7115C113.122 32.9405 98.9024 28.6461 85.7365 28.5245C76.7118 28.4411 68.186 30.3305 61.8892 35.1961C49.8958 44.4634 47.426 60.4715 50.8528 77.1044C53.3523 89.2355 58.9643 101.682 66.052 111.9C58.0011 107.3 47.5902 103.034 37.48 101.984C26.1467 100.799 15.2048 103.608 8.0621 114.068C-6.86421 135.932 0.610674 157.086 16.8256 172.355C32.7553 187.353 57.1842 196.559 76.4641 194.985C77.4836 194.898 78.243 194.003 78.1597 192.984C78.0763 191.966 77.1816 191.206 76.1628 191.293C57.7924 192.787 34.5434 183.951 19.3658 169.657C4.47405 155.635 -2.58652 136.234 11.1216 116.161C17.4128 106.948 27.113 104.621 37.096 105.664C47.4815 106.751 58.1888 111.437 66.0477 116.192C68.1761 117.476 70.323 118.748 72.4526 120.051C78.1646 126.454 84.4268 131.276 90.5754 133.61C92.1024 134.184 92.805 133.184 92.9884 132.894C93.2391 132.499 93.4818 131.863 93.0773 131.041C93.0014 130.887 92.8143 130.597 92.4815 130.276C92.0265 129.844 91.0132 129.047 90.5927 128.658C88.8577 127.04 86.9553 125.552 85.0832 124.107C81.8292 121.588 78.3727 119.347 74.8644 117.192C74.3624 116.618 73.8659 116.037 73.3744 115.445C64.5788 104.806 57.367 90.3637 54.481 76.3574C51.3628 61.2217 53.2411 46.5603 64.1546 38.1277C69.8352 33.7382 77.5608 32.1539 85.7025 32.2292C98.2862 32.3453 111.874 36.46 120.927 41.0199C126.456 43.8052 131.762 47.3574 136.372 51.4987C137.902 52.8731 139.297 54.4328 140.635 55.9944C140.782 56.166 140.985 56.4198 141.21 56.7106C141.794 57.5831 142.412 58.4234 143.063 59.2292C143.407 59.6534 143.641 59.8046 143.684 59.8318C144.803 60.5474 145.599 59.9467 145.938 59.6355C146.038 59.5429 147.054 58.5488 146.228 57.241C146.06 56.9761 145.014 55.5584 144.181 54.4909C138.001 45.1815 136.077 32.0798 138.807 21.4454C140.537 14.704 144.149 8.94317 149.872 5.93679C153.678 3.9381 158.399 3.1774 164.063 4.08568C177.722 6.2764 189.164 14.0705 199.345 23.6657C209.761 33.4814 218.858 45.1908 227.575 54.9885C228.254 55.7523 229.426 55.8208 230.19 55.141C230.953 54.4618 231.022 53.2899 230.342 52.5261C221.559 42.6524 212.382 30.8615 201.886 20.9693C191.155 10.8573 179.045 2.73654 164.649 0.427879C158.06 -0.629201 152.577 0.331585 148.149 2.65691C141.523 6.13688 137.222 12.7195 135.219 20.5241C133.125 28.6801 133.559 38.1598 136.344 46.6004Z" fill="#DFED4A"/>
</svg>
