<svg width="93" height="210" viewBox="0 0 93 210" fill="none" xmlns="http://www.w3.org/2000/svg">
    <path fill-rule="evenodd" clip-rule="evenodd"
          d="M70.9375 50.2134L70.8568 50.3388C70.4941 50.8537 70.1136 51.3686 69.9031 51.7447C67.042 56.8759 62.1077 61.3399 57.6033 65.0249C46.8215 73.8366 36.5143 83.226 26.3996 92.7989C23.5654 95.4809 21.0625 98.5078 18.4118 101.364C17.6283 102.211 16.8625 103.066 16.0924 103.921C15.7611 104.297 14.8792 104.902 14.4986 105.291C14.221 105.569 14.0866 105.842 14.0329 106.021C13.9075 106.478 14.0239 106.84 14.2701 107.127C14.4268 107.315 14.7224 107.575 15.3134 107.57C21.5282 107.503 29.6951 104.525 38.2337 100.505C50.7752 94.5988 64.1495 86.4722 73.1896 82.5499C75.5671 81.5201 80.0492 78.5874 84.173 76.5456C85.9998 75.6367 87.7371 74.88 89.1341 74.6427C88.2968 75.4218 87.1638 76.2948 86.6131 76.8903C84.2355 79.4649 81.4686 81.6634 78.9478 84.0902C71.2778 91.4691 52.6378 118.41 47.2111 127.656C42.8186 135.134 21.8773 180.048 19.9923 208.807C19.952 209.424 20.4177 209.957 21.0356 209.998C21.6535 210.038 22.1864 209.568 22.2267 208.954C24.0893 180.54 44.8022 136.177 49.1409 128.789C54.5094 119.646 72.9166 92.996 80.497 85.7066C83.0536 83.2484 85.8476 81.0141 88.2565 78.4082C89.1252 77.468 91.2878 75.8427 91.9057 74.8666C92.2549 74.3158 92.2862 73.8098 92.1787 73.4471C92.0444 73.0039 91.7086 72.5293 90.8444 72.3905C89.4295 72.1666 87.4415 72.6546 85.2476 73.5815C80.6805 75.5158 75.0613 79.2992 72.2986 80.4992C63.2451 84.426 49.844 92.5617 37.2801 98.4809C30.2773 101.776 23.5519 104.396 18.0222 105.125C18.6938 104.373 19.37 103.63 20.055 102.887C22.6699 100.061 25.137 97.075 27.9355 94.4243C38.0143 84.8917 48.2812 75.5337 59.0183 66.7578C63.7331 62.9026 68.8644 58.2012 71.8599 52.8372C72.2807 52.0805 73.3778 50.7372 73.6017 49.9761C73.7449 49.488 73.6776 49.0761 73.5164 48.7761C73.3239 48.4045 72.9746 48.0686 72.2941 48.0149C69.509 47.7865 64.8123 48.6283 59.3318 50.0432C46.8843 53.2625 30.2728 59.3833 23.3729 61.6041C18.7387 63.0952 14.1404 64.7832 9.4614 66.1265C9.22857 66.1936 4.68827 67.1025 2.52564 67.5324C2.95996 66.2742 3.85554 64.5772 4.957 62.6564C8.83452 55.9088 15.5195 46.7388 17.5119 43.9314C21.3313 38.545 25.2802 33.2705 28.9742 27.7945C34.8039 19.1529 40.3426 10.3323 46.2664 1.75336C46.6201 1.2474 46.4903 0.548925 45.9843 0.19968C45.4739 -0.154043 44.7754 -0.0242477 44.4262 0.48171C38.4935 9.06509 32.9503 17.8947 27.1161 26.5453C23.4356 32.0033 19.4954 37.2644 15.6851 42.6374C13.6747 45.4716 6.93155 54.7312 3.01821 61.5415C1.22273 64.6623 0.0495162 67.3309 0.000263602 68.7502C-0.00869141 69.1442 0.20629 69.9413 1.29432 69.995C2.68683 70.0621 9.74791 68.3741 10.0792 68.2801C14.7806 66.9279 19.4013 65.2309 24.0579 63.7354C30.9353 61.5236 47.4888 55.4207 59.8915 52.2148C64.3556 51.0596 68.2644 50.2671 70.9375 50.2134Z"
          fill="#FF3017"/>
</svg>
