<svg width="745" height="115" viewBox="0 0 745 115" fill="none" xmlns="http://www.w3.org/2000/svg">
    <path fill-rule="evenodd" clip-rule="evenodd"
          d="M16.6365 64.2047C11.7283 64.1223 6.82728 64.0126 1.92762 63.882C0.970354 63.8559 0.172898 64.6128 0.14773 65.5718C0.122561 66.5309 0.879312 67.3308 1.83658 67.3569C6.24709 67.4703 10.6585 67.5698 15.0673 67.6553C15.3132 67.8241 15.8073 68.0712 16.6535 68.2155C43.0228 72.5448 71.5266 69.2689 98.494 67.4267C123.775 66.8834 149.069 65.9649 174.369 64.845C171.354 65.1337 168.341 65.4154 165.326 65.6831C164.698 65.7406 163.072 65.8949 162.849 65.9503C161.572 66.2937 161.537 67.3913 161.542 67.67C161.544 67.8094 161.644 69.3473 163.371 69.3945C181.923 69.8852 200.473 68.2317 218.942 66.7331C225.813 66.1745 232.676 65.6015 239.544 65.015C241.932 64.8049 248.146 64.5108 249.003 64.3495C249.925 64.1715 250.283 63.5887 250.42 63.138C265.321 62.2339 280.237 61.4422 295.157 60.7551C298.079 60.7529 300.995 60.7574 303.913 60.762C335.704 60.8415 367.488 61.039 399.277 60.9793C381.566 61.7952 363.811 62.6779 346.127 63.8992C342.505 64.1492 338.889 64.497 335.268 64.7749C333.289 64.9206 328.174 64.992 327.453 65.2246C326.38 65.581 326.211 66.4057 326.183 66.8146C326.166 67.0642 326.245 68.4545 328.049 68.7989C361.503 75.2147 395.638 76.578 429.568 78.3459C438.493 78.8091 447.417 79.307 456.337 79.8325C435.022 80.1964 413.495 79.4191 392.216 78.9012C392.024 78.7219 391.747 78.5512 391.349 78.4355C390.766 78.2591 388.959 78.0327 385.667 77.7886C384.957 77.7365 384.316 78.1203 384.004 78.7131C378.948 78.6143 373.906 78.5373 368.888 78.5036C352.453 78.3912 336.018 78.8636 319.585 78.8279L315.866 78.7863L315.09 78.7788C312.242 78.7299 308.757 78.6545 306.442 78.6048C305.106 78.5685 301.63 78.5562 301.149 78.5674C299.699 78.6145 299.451 79.9561 299.441 80.0181C299.435 80.0526 299.455 82.01 301.439 82.0596C302.767 82.0953 307.778 82.1634 314.804 82.2482C316.569 82.277 318.117 82.2988 319.041 82.3019L319.751 82.3052C342.216 82.5436 378.217 82.7933 388.411 82.286C421.574 83.0307 455.412 84.6119 488.164 81.7452C489.238 81.6465 489.709 81.3006 489.802 81.2229C490.309 80.7749 490.416 80.2665 490.395 79.8266C490.383 79.5474 490.243 78.4177 488.884 78.1572C487.929 77.9712 481.044 77.8396 478.394 77.6781C462.182 76.6888 445.968 75.7203 429.747 74.8767C400.499 73.3507 371.095 72.142 342.107 67.695C343.526 67.5764 344.946 67.4648 346.366 67.3672C364.297 66.1268 382.301 65.232 400.256 64.4107C456.015 61.8586 513.069 65.2783 568.573 60.5519C569.71 60.4572 570.218 60.1137 570.316 60.0364C570.854 59.5832 570.96 59.0539 570.939 58.607C570.926 58.3347 570.775 57.1904 569.39 56.9352C568.247 56.7233 560.016 56.5967 556.847 56.4231C544.193 55.7297 531.53 55.0287 518.863 54.6339C497.955 53.9864 477.002 53.6005 456.053 53.5074C454.265 53.1013 452.412 52.726 450.499 52.3815C464.625 52.1383 478.744 52.0128 492.858 52.0472C550.713 52.1693 608.553 53.2302 666.382 54.7151C690.333 55.3333 714.624 57.2889 738.584 56.8913C739.433 56.8757 741.314 57.051 742.24 57.0333C742.769 57.0252 743.157 56.9315 743.342 56.8598C744.113 56.5468 744.364 55.985 744.448 55.5448C744.518 55.2012 744.652 54.075 743.225 53.4413C712.538 39.8085 663.791 44.338 631.865 42.955C501.501 37.3097 371.045 40.7014 240.799 47.608C188.724 50.3665 136.781 53.1681 84.8137 57.5764C66.3718 59.1393 47.9057 60.4016 29.5578 62.8755C27.163 63.2035 22.0999 63.5359 18.8561 63.8865C17.9828 63.9841 17.2227 64.0958 16.6365 64.2047ZM733.432 53.4659C703.148 43.9103 660.507 47.6724 631.716 46.4262C501.463 40.7879 371.118 44.1728 240.983 51.0725C188.945 53.8334 137.039 56.6305 85.1072 61.041C71.8962 62.157 58.6716 63.1258 45.4892 64.4942C63.0939 64.5278 80.7053 64.3323 98.3421 63.9572C102.012 63.7033 105.657 63.4755 109.264 63.3012C153.563 61.141 197.96 59.043 242.357 57.989C257.043 57.2035 271.729 56.397 286.428 55.5984C314.879 53.0709 353.719 49.4916 389.45 48.882C401.741 48.6751 413.666 48.8209 424.683 49.4867C447.428 48.8656 470.152 48.5217 492.864 48.5739C550.747 48.6908 608.613 49.7603 666.476 51.2474C688.678 51.817 711.168 53.5467 733.432 53.4659ZM455.707 56.98C442.284 56.9269 428.865 56.9994 415.465 57.1983C409.501 57.2924 403.536 57.3935 397.569 57.5083C400.827 57.5066 404.086 57.4981 407.344 57.4825C422.635 57.4317 437.964 57.404 453.255 57.0608C454.015 57.0395 455.034 57.0626 456.175 57.0934L455.728 56.9883L455.707 56.98ZM538.394 58.918C531.851 58.5993 525.305 58.3084 518.757 58.1078C501.763 57.584 484.74 57.2253 467.712 57.0613C468.12 57.3239 468.336 57.5745 468.435 57.7339C468.725 58.184 468.771 58.6253 468.705 59.0249C468.664 59.2729 468.571 59.5665 468.361 59.8455C491.747 59.8291 515.16 59.8629 538.394 58.918ZM432.667 53.5379C430.104 53.3122 427.478 53.1173 424.796 52.9536C411.5 53.3193 398.201 53.7685 384.918 54.2881C395.078 54.0711 405.247 53.8823 415.411 53.7282C421.161 53.6413 426.914 53.5757 432.667 53.5379Z"
          fill="#7ACA10"/>
</svg>
